<mxfile host="app.diagrams.net" agent="Mozilla/5.0 (Windows NT 10.0; Win64; x64; rv:131.0) Gecko/20100101 Firefox/131.0" version="24.8.3">
  <diagram name="Sivu-1" id="WFQ5DlZvpVMi4vJnOMIy">
    <mxGraphModel dx="1434" dy="706" grid="1" gridSize="10" guides="1" tooltips="1" connect="1" arrows="1" fold="1" page="1" pageScale="1" pageWidth="827" pageHeight="1169" background="#ffffff" math="0" shadow="0">
      <root>
        <mxCell id="0" />
        <mxCell id="1" parent="0" />
        <mxCell id="709E5ZtUhcAdIkRODjJq-1" value="&lt;h1 style=&quot;margin-top: 0px;&quot;&gt;Diagram for mmlElevation2mBBOX&lt;br&gt;&lt;/h1&gt;&lt;div&gt;Function: Get tif file link from MaanMittausLaitos API.&lt;/div&gt;&lt;div&gt;Input: Bounding box in etrs89 coordinates&lt;/div&gt;&lt;div&gt;Output: Download link to .tif file. (image of elevation at specified boundingbox area)&lt;br&gt;&lt;/div&gt;" style="text;html=1;whiteSpace=wrap;overflow=hidden;rounded=0;" parent="1" vertex="1">
          <mxGeometry x="10" y="10" width="530" height="120" as="geometry" />
        </mxCell>
        <mxCell id="709E5ZtUhcAdIkRODjJq-2" value="Node.js" style="swimlane;whiteSpace=wrap;html=1;" parent="1" vertex="1">
          <mxGeometry x="40" y="160" width="240" height="370" as="geometry" />
        </mxCell>
        <mxCell id="709E5ZtUhcAdIkRODjJq-7" value="&lt;div&gt;function mmlElevation2mBBOX&lt;br&gt;&lt;/div&gt;" style="swimlane;whiteSpace=wrap;html=1;" parent="709E5ZtUhcAdIkRODjJq-2" vertex="1">
          <mxGeometry x="10" y="30" width="220" height="340" as="geometry" />
        </mxCell>
        <mxCell id="709E5ZtUhcAdIkRODjJq-8" value="&lt;div&gt;Requesting MML API&lt;/div&gt;&lt;div&gt;to start a job process.&lt;br&gt;&lt;/div&gt;" style="rounded=0;whiteSpace=wrap;html=1;" parent="709E5ZtUhcAdIkRODjJq-7" vertex="1">
          <mxGeometry x="10" y="30" width="200" height="60" as="geometry" />
        </mxCell>
        <mxCell id="709E5ZtUhcAdIkRODjJq-25" value="Get url link to job from response" style="rounded=0;whiteSpace=wrap;html=1;" parent="709E5ZtUhcAdIkRODjJq-7" vertex="1">
          <mxGeometry x="10" y="100" width="200" height="30" as="geometry" />
        </mxCell>
        <mxCell id="709E5ZtUhcAdIkRODjJq-30" value="&lt;div&gt;-Begin polling job process.&lt;/div&gt;&lt;div&gt;poll until job is successful or,&lt;/div&gt;&lt;div&gt;until too many retries.&lt;/div&gt;&lt;div&gt;&lt;br&gt;&lt;/div&gt;&lt;div&gt;&lt;br&gt;&lt;/div&gt;&lt;div&gt;&lt;br&gt;&lt;/div&gt;&lt;div&gt;&lt;br&gt;&lt;/div&gt;&lt;div&gt;&lt;br&gt;&lt;/div&gt;" style="rounded=0;whiteSpace=wrap;html=1;" parent="709E5ZtUhcAdIkRODjJq-7" vertex="1">
          <mxGeometry x="10" y="140" width="200" height="130" as="geometry" />
        </mxCell>
        <mxCell id="709E5ZtUhcAdIkRODjJq-39" value="" style="html=1;verticalLabelPosition=bottom;align=center;labelBackgroundColor=#ffffff;verticalAlign=top;strokeWidth=2;strokeColor=#0080F0;shadow=0;dashed=0;shape=mxgraph.ios7.icons.repeat;pointerEvents=1" parent="709E5ZtUhcAdIkRODjJq-7" vertex="1">
          <mxGeometry x="45" y="200" width="130" height="57" as="geometry" />
        </mxCell>
        <mxCell id="lb_qFUaLFCRcehlYncB8-1" value="&lt;div&gt;Return:&lt;/div&gt;&lt;div&gt;url link to .tif file&lt;br&gt;&lt;/div&gt;" style="rounded=0;whiteSpace=wrap;html=1;" vertex="1" parent="709E5ZtUhcAdIkRODjJq-7">
          <mxGeometry x="10" y="280" width="200" height="50" as="geometry" />
        </mxCell>
        <mxCell id="709E5ZtUhcAdIkRODjJq-6" value="MaanMittausLaitos API" style="swimlane;whiteSpace=wrap;html=1;" parent="1" vertex="1">
          <mxGeometry x="560" y="160" width="240" height="360" as="geometry" />
        </mxCell>
        <mxCell id="709E5ZtUhcAdIkRODjJq-15" style="edgeStyle=orthogonalEdgeStyle;rounded=0;orthogonalLoop=1;jettySize=auto;html=1;entryX=0.5;entryY=0;entryDx=0;entryDy=0;" parent="709E5ZtUhcAdIkRODjJq-6" source="709E5ZtUhcAdIkRODjJq-9" target="709E5ZtUhcAdIkRODjJq-12" edge="1">
          <mxGeometry relative="1" as="geometry" />
        </mxCell>
        <mxCell id="709E5ZtUhcAdIkRODjJq-9" value="Starts job process." style="rounded=0;whiteSpace=wrap;html=1;" parent="709E5ZtUhcAdIkRODjJq-6" vertex="1">
          <mxGeometry x="10" y="60" width="220" height="60" as="geometry" />
        </mxCell>
        <mxCell id="709E5ZtUhcAdIkRODjJq-12" value="JOB PROCESS" style="swimlane;whiteSpace=wrap;html=1;" parent="709E5ZtUhcAdIkRODjJq-6" vertex="1">
          <mxGeometry x="10" y="160" width="220" height="170" as="geometry" />
        </mxCell>
        <mxCell id="709E5ZtUhcAdIkRODjJq-16" value="&lt;div&gt;-fetches data from gis db?&lt;/div&gt;&lt;div&gt;-updates api end point json&lt;br&gt;&lt;/div&gt;&lt;div&gt;-adds .tif link to /results once,&lt;/div&gt;&lt;div&gt;done.&lt;br&gt;&lt;/div&gt;" style="rounded=0;whiteSpace=wrap;html=1;" parent="709E5ZtUhcAdIkRODjJq-12" vertex="1">
          <mxGeometry x="20" y="40" width="180" height="110" as="geometry" />
        </mxCell>
        <mxCell id="709E5ZtUhcAdIkRODjJq-10" style="edgeStyle=orthogonalEdgeStyle;rounded=0;orthogonalLoop=1;jettySize=auto;html=1;" parent="1" source="709E5ZtUhcAdIkRODjJq-8" target="709E5ZtUhcAdIkRODjJq-9" edge="1">
          <mxGeometry relative="1" as="geometry" />
        </mxCell>
        <mxCell id="709E5ZtUhcAdIkRODjJq-11" value="&lt;div&gt;post request&lt;br&gt;&lt;/div&gt;&lt;div&gt;/v1/processes/korkeusmalli_2m_bbox/execution&lt;/div&gt;&lt;div&gt;{id, {bbox[], format}&lt;br&gt;&lt;/div&gt;" style="edgeLabel;html=1;align=center;verticalAlign=middle;resizable=0;points=[];labelBackgroundColor=none;" parent="709E5ZtUhcAdIkRODjJq-10" vertex="1" connectable="0">
          <mxGeometry x="-0.0054" y="1" relative="1" as="geometry">
            <mxPoint x="6" y="-19" as="offset" />
          </mxGeometry>
        </mxCell>
        <mxCell id="709E5ZtUhcAdIkRODjJq-26" style="edgeStyle=orthogonalEdgeStyle;rounded=0;orthogonalLoop=1;jettySize=auto;html=1;exitX=0.25;exitY=1;exitDx=0;exitDy=0;entryX=1;entryY=0.5;entryDx=0;entryDy=0;" parent="1" source="709E5ZtUhcAdIkRODjJq-9" target="709E5ZtUhcAdIkRODjJq-25" edge="1">
          <mxGeometry relative="1" as="geometry">
            <mxPoint x="625" y="310" as="targetPoint" />
          </mxGeometry>
        </mxCell>
        <mxCell id="709E5ZtUhcAdIkRODjJq-27" value="&lt;div&gt;post response&lt;/div&gt;&lt;div&gt;{jobID, status, progress, links[{href}] ...}&lt;br&gt;&lt;/div&gt;" style="edgeLabel;html=1;align=center;verticalAlign=middle;resizable=0;points=[];labelBackgroundColor=none;" parent="709E5ZtUhcAdIkRODjJq-26" vertex="1" connectable="0">
          <mxGeometry x="0.1795" relative="1" as="geometry">
            <mxPoint y="-15" as="offset" />
          </mxGeometry>
        </mxCell>
        <mxCell id="709E5ZtUhcAdIkRODjJq-31" style="edgeStyle=orthogonalEdgeStyle;rounded=0;orthogonalLoop=1;jettySize=auto;html=1;exitX=1;exitY=0.25;exitDx=0;exitDy=0;entryX=0;entryY=0.25;entryDx=0;entryDy=0;" parent="1" source="709E5ZtUhcAdIkRODjJq-30" target="709E5ZtUhcAdIkRODjJq-12" edge="1">
          <mxGeometry relative="1" as="geometry" />
        </mxCell>
        <mxCell id="709E5ZtUhcAdIkRODjJq-32" value="&lt;div&gt;get request&lt;/div&gt;&lt;div&gt;/ogcproc/v1/jobs/uuid&lt;br&gt;&lt;/div&gt;" style="edgeLabel;html=1;align=center;verticalAlign=middle;resizable=0;points=[];labelBackgroundColor=none;" parent="709E5ZtUhcAdIkRODjJq-31" vertex="1" connectable="0">
          <mxGeometry x="-0.0108" y="1" relative="1" as="geometry">
            <mxPoint x="1" y="-11" as="offset" />
          </mxGeometry>
        </mxCell>
        <mxCell id="709E5ZtUhcAdIkRODjJq-37" value="" style="endArrow=classic;html=1;rounded=0;entryX=0.996;entryY=0.682;entryDx=0;entryDy=0;entryPerimeter=0;" parent="1" target="709E5ZtUhcAdIkRODjJq-30" edge="1">
          <mxGeometry width="50" height="50" relative="1" as="geometry">
            <mxPoint x="570" y="420" as="sourcePoint" />
            <mxPoint x="450" y="330" as="targetPoint" />
          </mxGeometry>
        </mxCell>
        <mxCell id="709E5ZtUhcAdIkRODjJq-38" value="&lt;div&gt;get response&lt;/div&gt;&lt;div&gt;{status: &#39;accepted&#39; or &#39;succesfull&#39; ...}&lt;br&gt;&lt;/div&gt;" style="edgeLabel;html=1;align=center;verticalAlign=middle;resizable=0;points=[];labelBackgroundColor=none;" parent="709E5ZtUhcAdIkRODjJq-37" vertex="1" connectable="0">
          <mxGeometry x="-0.0133" y="-2" relative="1" as="geometry">
            <mxPoint x="3" y="-12" as="offset" />
          </mxGeometry>
        </mxCell>
        <mxCell id="lb_qFUaLFCRcehlYncB8-2" value="" style="endArrow=none;html=1;rounded=0;" edge="1" parent="1">
          <mxGeometry width="50" height="50" relative="1" as="geometry">
            <mxPoint y="560" as="sourcePoint" />
            <mxPoint x="840" y="560" as="targetPoint" />
          </mxGeometry>
        </mxCell>
      </root>
    </mxGraphModel>
  </diagram>
</mxfile>
